<?xml version="1.0" standalone="no"?>
<!DOCTYPE svg PUBLIC "-//W3C//DTD SVG 20010904//EN"
 "http://www.w3.org/TR/2001/REC-SVG-20010904/DTD/svg10.dtd">
<svg version="1.0" xmlns="http://www.w3.org/2000/svg"
 width="1000.000000pt" height="244.000000pt" viewBox="0 0 1000.000000 244.000000"
 preserveAspectRatio="xMidYMid meet">

<g transform="translate(0.000000,244.000000) scale(0.100000,-0.100000)"
fill="#ffffff" stroke="none">
<path d="M200 2063 c-187 -420 -190 -430 -135 -518 38 -62 96 -103 166 -118
94 -21 89 24 89 -749 l0 -668 449 0 450 0 3 182 c3 163 5 187 24 223 27 52 87
93 146 101 70 10 148 -30 185 -94 27 -46 28 -52 32 -230 l3 -182 434 0 434 0
1 658 c0 596 2 661 17 702 13 35 23 46 42 48 119 15 214 102 234 216 5 28 3
48 -9 70 -9 17 -85 186 -169 376 l-153 345 -1039 3 -1040 2 -164 -367z m728
295 c-2 -13 -33 -170 -69 -350 l-64 -328 -153 0 -153 0 6 23 c9 27 168 528
196 615 l21 62 110 0 c109 0 110 0 106 -22z m593 -258 c9 -151 19 -308 22
-347 l5 -73 -149 0 c-148 0 -149 0 -149 23 0 12 9 155 20 317 11 162 20 310
20 328 l0 33 108 -3 107 -3 16 -275z m686 -70 c62 -190 113 -346 113 -347 0
-2 -69 -3 -154 -3 -151 0 -154 0 -159 23 -14 56 -127 646 -127 661 0 15 12 16
107 14 l107 -3 113 -345z m-1230 -599 c80 -20 154 10 215 85 17 21 17 21 66
-26 53 -51 120 -76 176 -65 46 10 112 51 137 86 l22 31 24 -31 c86 -110 243
-112 331 -6 l30 37 21 -31 c12 -17 43 -43 69 -58 79 -47 172 -33 245 35 l27
26 0 -417 0 -417 -935 0 -935 0 0 416 0 416 39 -34 c83 -76 187 -72 273 10
l49 47 48 -46 c35 -34 61 -50 98 -58z"/>
<path d="M680 1085 l0 -205 220 0 220 0 0 205 0 205 -220 0 -220 0 0 -205z"/>
<path d="M1200 1085 l0 -205 215 0 215 0 0 205 0 205 -215 0 -215 0 0 -205z"/>
<path d="M1710 1085 l0 -205 215 0 215 0 0 205 0 205 -215 0 -215 0 0 -205z"/>
<path d="M3040 2074 c-6 -16 -10 -340 -10 -854 0 -514 4 -838 10 -854 13 -35
47 -35 60 0 6 16 10 340 10 854 0 514 -4 838 -10 854 -6 16 -17 26 -30 26 -13
0 -24 -10 -30 -26z"/>
<path d="M3619 2090 c-114 -20 -212 -92 -237 -178 -18 -58 -14 -151 7 -197 35
-78 104 -122 306 -192 125 -44 146 -55 179 -93 21 -25 26 -42 26 -85 0 -46 -4
-58 -30 -83 -39 -39 -111 -57 -201 -48 -67 6 -208 45 -261 72 l-26 14 -7 -68
c-4 -37 -7 -74 -8 -82 -3 -27 209 -80 322 -80 141 0 278 50 330 121 80 110 60
286 -42 363 -48 36 -142 80 -237 111 -168 55 -211 88 -212 164 -1 79 49 119
160 128 80 6 189 -15 269 -52 31 -14 57 -24 59 -22 1 1 6 36 10 78 l6 75 -68
22 c-126 39 -240 50 -345 32z"/>
<path d="M5553 2086 c-175 -40 -315 -185 -352 -364 -6 -29 -11 -91 -11 -137 0
-161 44 -281 139 -376 207 -206 581 -176 738 60 67 99 88 175 88 316 0 100 -4
131 -23 188 -52 148 -150 249 -290 298 -75 26 -209 33 -289 15z m243 -153 c68
-23 144 -101 174 -178 35 -87 35 -253 0 -340 -30 -77 -106 -155 -174 -178 -55
-19 -171 -22 -227 -7 -134 37 -219 175 -219 354 0 177 75 305 207 352 54 19
179 17 239 -3z"/>
<path d="M4230 1585 l0 -495 75 0 75 0 0 225 0 225 243 -2 242 -3 3 -222 2
-223 75 0 75 0 0 495 0 495 -75 0 -75 0 0 -200 0 -200 -245 0 -245 0 0 200 0
200 -75 0 -75 0 0 -495z"/>
<path d="M6330 1586 l0 -496 75 0 75 0 2 173 3 172 150 6 c108 4 164 11 199
24 57 21 121 81 143 133 37 90 36 245 -3 327 -25 54 -79 101 -143 127 -50 20
-78 22 -278 26 l-223 4 0 -496z m439 339 c63 -37 76 -66 76 -165 0 -96 -10
-121 -69 -164 -24 -18 -45 -21 -162 -24 l-134 -4 0 192 0 192 128 -3 c105 -3
133 -7 161 -24z"/>
<path d="M7150 1586 l0 -496 80 0 80 0 0 174 0 174 153 4 c175 4 230 21 292
89 58 65 69 100 69 229 1 106 -1 119 -26 166 -33 63 -83 106 -151 129 -42 15
-94 19 -274 23 l-223 4 0 -496z m403 353 c59 -16 103 -61 117 -120 25 -102
-10 -196 -84 -230 -32 -15 -66 -19 -158 -19 l-118 0 0 190 0 190 103 0 c56 0
119 -5 140 -11z"/>
<path d="M7980 1585 l0 -495 75 0 75 0 0 495 0 495 -75 0 -75 0 0 -495z"/>
<path d="M8424 1836 l165 -243 -170 -252 -170 -251 85 0 85 0 116 173 c65 94
123 178 130 186 11 11 33 -17 137 -172 l123 -186 83 -1 c45 0 82 3 82 6 0 3
-75 116 -166 251 l-166 246 161 238 c88 131 161 240 161 243 0 3 -37 6 -82 6
l-83 0 -119 -181 c-66 -99 -123 -176 -127 -172 -4 4 -59 86 -124 181 l-116
172 -85 0 -85 0 165 -244z"/>
<path d="M9459 2053 c-32 -83 -339 -948 -339 -955 0 -4 33 -8 73 -8 l73 0 44
128 45 127 181 3 c137 2 184 -1 192 -10 5 -7 26 -58 45 -113 19 -55 38 -108
42 -117 6 -15 20 -18 82 -18 57 0 74 3 70 13 -5 13 -322 899 -339 950 -10 26
-12 27 -84 27 -72 0 -75 -1 -85 -27z m158 -386 c34 -99 63 -181 63 -183 0 -2
-62 -4 -138 -4 l-139 0 64 183 c82 234 74 215 81 197 3 -8 34 -95 69 -193z"/>
<path d="M6040 795 c0 -22 4 -26 23 -23 14 2 22 10 22 23 0 13 -8 21 -22 23
-19 3 -23 -1 -23 -23z"/>
<path d="M9214 805 c-4 -9 -2 -21 4 -27 15 -15 44 -1 40 19 -4 23 -36 29 -44
8z"/>
<path d="M3737 803 c-4 -3 -7 -84 -7 -180 0 -166 1 -173 20 -173 19 0 20 7 20
91 0 94 8 122 36 133 35 13 44 -12 44 -120 0 -97 1 -104 20 -104 19 0 20 7 20
109 0 106 -1 110 -26 130 -21 16 -30 18 -52 10 -15 -6 -30 -16 -34 -22 -4 -7
-8 21 -8 61 0 53 -3 72 -13 72 -8 0 -17 -3 -20 -7z"/>
<path d="M9097 803 c-4 -3 -7 -80 -7 -169 0 -173 6 -194 51 -194 22 0 26 25 4
34 -12 4 -15 33 -15 171 0 131 -3 165 -13 165 -8 0 -17 -3 -20 -7z"/>
<path d="M3389 615 l26 -165 26 0 c31 0 30 -3 55 157 10 62 20 110 23 107 3
-3 15 -62 26 -132 l20 -127 29 0 30 0 23 140 c12 77 23 150 23 163 0 35 -28
27 -35 -10 -10 -58 -35 -237 -35 -250 0 -37 -13 14 -30 118 -29 170 -27 166
-53 162 -19 -3 -23 -13 -34 -78 -31 -188 -35 -211 -38 -208 -2 2 -11 57 -20
123 -22 162 -23 165 -43 165 -17 0 -17 -9 7 -165z"/>
<path d="M4705 756 c-42 -42 -58 -147 -33 -228 23 -76 105 -113 158 -70 33 26
18 44 -20 25 -65 -32 -104 13 -104 121 -1 118 34 165 105 139 22 -8 29 -8 33
3 7 19 -25 34 -74 34 -30 0 -47 -6 -65 -24z"/>
<path d="M7146 693 c-3 -49 -9 -123 -12 -165 -6 -75 -6 -78 15 -78 19 0 21 6
22 73 1 39 4 101 8 137 l6 65 29 -122 c24 -99 33 -123 47 -123 20 0 20 -1 51
140 23 104 23 105 30 60 3 -25 7 -80 7 -122 1 -87 7 -108 28 -108 14 0 15 17
9 123 -4 67 -9 141 -13 165 -5 39 -8 43 -32 40 -25 -3 -27 -8 -50 -121 -14
-66 -28 -113 -32 -105 -4 7 -17 61 -30 121 -22 104 -23 107 -49 107 -27 0 -27
-1 -34 -87z"/>
<path d="M8387 755 c-51 -51 -60 -192 -17 -263 22 -36 54 -52 104 -52 19 0 45
-9 60 -21 22 -17 29 -19 41 -9 19 16 5 35 -31 44 l-24 6 21 29 c48 65 44 209
-8 263 -37 39 -108 40 -146 3z m119 -26 c27 -30 33 -172 10 -217 -20 -39 -57
-50 -91 -28 -29 19 -40 71 -37 172 3 80 73 123 118 73z"/>
<path d="M7910 730 c0 -20 -5 -30 -15 -30 -8 0 -15 -7 -15 -15 0 -8 7 -15 15
-15 12 0 15 -17 15 -93 0 -106 13 -137 58 -137 15 0 32 4 39 8 18 12 1 29 -27
28 -25 -1 -25 0 -28 97 l-3 97 26 0 c16 0 25 6 25 15 0 9 -9 15 -25 15 -21 0
-25 5 -25 30 0 23 -4 30 -20 30 -16 0 -20 -7 -20 -30z"/>
<path d="M9330 730 c0 -20 -5 -30 -15 -30 -8 0 -15 -7 -15 -15 0 -8 7 -15 15
-15 12 0 15 -15 15 -74 0 -101 8 -136 36 -148 30 -14 75 -3 68 16 -3 8 -12 12
-20 9 -32 -12 -44 16 -44 108 0 88 0 89 25 89 16 0 25 6 25 15 0 9 -9 15 -25
15 -21 0 -25 5 -25 30 0 23 -4 30 -20 30 -16 0 -20 -7 -20 -30z"/>
<path d="M4021 701 c-73 -19 -97 -176 -36 -237 26 -26 72 -32 106 -14 25 14
26 45 2 35 -57 -24 -89 -10 -99 43 l-6 32 72 0 72 0 -7 46 c-4 26 -12 55 -18
65 -15 24 -55 37 -86 30z m49 -41 c11 -11 20 -31 20 -45 0 -23 -3 -25 -50 -25
-54 0 -61 10 -39 53 22 41 40 46 69 17z"/>
<path d="M4270 702 c-8 -2 -23 -14 -32 -26 l-18 -21 0 23 c0 13 -6 22 -15 22
-13 0 -15 -21 -15 -125 0 -118 1 -125 20 -125 18 0 20 7 20 88 0 95 14 132 51
132 10 0 19 6 19 14 0 18 -11 25 -30 18z"/>
<path d="M4401 701 c-57 -15 -87 -116 -57 -195 17 -43 46 -66 86 -66 24 0 70
21 70 31 0 15 -20 20 -41 9 -32 -18 -66 -4 -78 31 -6 18 -11 36 -11 40 0 5 32
9 70 9 l70 0 0 30 c0 76 -49 125 -109 111z m47 -37 c14 -10 22 -25 22 -45 0
-28 -1 -29 -51 -29 -51 0 -51 0 -44 28 6 26 32 62 44 62 4 0 17 -7 29 -16z"/>
<path d="M4964 702 c-42 -6 -68 -48 -72 -115 -5 -104 45 -166 114 -141 47 16
69 58 69 129 0 93 -41 139 -111 127z m70 -95 c13 -64 -5 -124 -40 -133 -40
-10 -57 15 -62 90 -4 59 -2 67 22 91 25 25 29 26 49 12 14 -9 25 -31 31 -60z"/>
<path d="M5230 702 c-8 -2 -22 -11 -31 -19 -14 -12 -17 -12 -22 2 -4 8 -13 15
-22 15 -13 0 -15 -19 -15 -125 0 -118 1 -125 20 -125 19 0 20 7 20 94 0 90 1
96 26 115 48 38 64 5 64 -136 0 -58 3 -73 15 -73 12 0 15 19 15 108 0 109 -7
133 -40 144 -8 3 -22 3 -30 0z"/>
<path d="M5628 699 c-71 -26 -78 -211 -10 -248 42 -23 112 -7 112 25 0 12 -5
14 -17 9 -44 -19 -70 -17 -87 6 -9 13 -16 34 -16 46 0 22 4 23 64 23 36 0 67
3 70 8 2 4 1 27 -4 51 -12 67 -57 99 -112 80z m55 -31 c9 -7 20 -28 23 -45 l7
-33 -53 0 -52 0 6 33 c6 28 29 57 46 57 3 0 14 -6 23 -12z"/>
<path d="M5890 703 c-8 -3 -23 -12 -32 -21 -16 -14 -18 -13 -18 1 0 10 -7 17
-15 17 -13 0 -15 -21 -15 -125 0 -104 2 -125 15 -125 12 0 15 16 15 85 0 88
13 126 47 139 34 13 43 -12 43 -120 0 -97 1 -104 20 -104 19 0 20 7 20 105 0
99 -2 107 -25 130 -25 26 -30 27 -55 18z"/>
<path d="M6215 702 c-35 -7 -54 -33 -64 -86 -25 -122 43 -206 134 -164 26 12
29 36 4 29 -63 -18 -89 -5 -103 52 l-6 27 70 0 70 0 0 33 c0 71 -48 121 -105
109z m47 -39 c10 -9 18 -29 18 -45 0 -27 -2 -28 -49 -28 -47 0 -48 1 -43 28 5
29 29 62 45 62 6 0 19 -7 29 -17z"/>
<path d="M6470 702 c-8 -2 -22 -11 -31 -19 -14 -12 -17 -12 -22 2 -4 8 -13 15
-22 15 -13 0 -15 -19 -15 -125 0 -118 1 -125 20 -125 19 0 20 7 20 94 0 90 1
96 26 115 46 36 54 21 54 -100 0 -102 1 -109 20 -109 19 0 20 7 20 108 0 109
-7 133 -40 144 -8 3 -22 3 -30 0z"/>
<path d="M6664 696 c-95 -42 -69 -256 32 -256 35 0 64 17 58 34 -4 11 -11 12
-36 2 -44 -17 -68 16 -68 96 0 83 11 100 62 96 51 -4 61 15 17 31 -18 6 -32
11 -33 11 -1 -1 -15 -7 -32 -14z"/>
<path d="M6853 695 c-41 -17 -56 -60 -51 -141 4 -58 8 -70 33 -91 23 -21 36
-24 68 -20 43 6 63 19 53 36 -5 8 -13 8 -26 1 -45 -24 -90 5 -90 57 0 22 4 23
66 23 l67 0 -5 50 c-8 78 -52 111 -115 85z m61 -31 c9 -8 16 -21 16 -29 0 -7
3 -20 6 -29 5 -13 -2 -16 -45 -16 -48 0 -51 2 -51 25 0 24 31 65 49 65 5 0 17
-7 25 -16z"/>
<path d="M7508 698 c-81 -27 -75 -233 7 -254 34 -9 90 8 90 26 0 8 -7 13 -15
11 -53 -14 -68 -12 -84 10 -9 13 -16 34 -16 46 0 22 4 23 65 23 l65 0 0 44 c0
73 -49 115 -112 94z m55 -30 c9 -7 20 -28 23 -45 l7 -33 -52 0 c-48 0 -51 2
-51 25 0 24 31 65 48 65 5 0 16 -6 25 -12z"/>
<path d="M7741 701 c-80 -20 -96 -207 -21 -246 37 -19 70 -19 99 1 29 21 13
41 -19 24 -30 -16 -64 -5 -78 25 -23 50 -18 55 59 55 l72 0 -7 45 c-3 25 -10
54 -16 64 -12 24 -57 39 -89 32z m49 -41 c11 -11 20 -31 20 -45 0 -23 -3 -25
-50 -25 -53 0 -56 3 -39 47 17 46 39 53 69 23z"/>
<path d="M8083 695 c-62 -26 -50 -99 20 -128 48 -21 63 -42 48 -73 -10 -22
-17 -25 -44 -22 -17 3 -38 7 -46 9 -25 7 -22 -17 4 -29 56 -26 117 -6 129 42
10 40 -8 68 -60 95 -58 31 -70 64 -31 82 18 8 30 8 47 -1 26 -14 49 0 28 17
-24 19 -63 22 -95 8z"/>
<path d="M8903 699 c-22 -6 -30 -14 -27 -24 4 -10 12 -12 31 -4 13 5 28 9 33
9 17 0 40 -32 40 -54 0 -20 -6 -24 -41 -29 -57 -8 -79 -31 -79 -83 0 -33 5
-46 22 -58 28 -20 58 -20 84 -2 17 13 21 12 37 -1 9 -9 19 -14 21 -12 2 2 0
54 -3 116 -6 120 -13 136 -61 146 -14 2 -39 1 -57 -4z m77 -163 c0 -68 -72
-93 -78 -28 -4 42 12 62 49 62 26 0 29 -3 29 -34z"/>
<path d="M5350 693 c0 -5 16 -60 34 -123 30 -105 35 -115 58 -118 24 -3 27 2
47 78 12 44 28 101 36 126 13 44 13 45 -8 42 -18 -3 -25 -18 -45 -107 -15 -64
-27 -99 -32 -90 -4 8 -17 56 -30 107 -18 76 -26 92 -41 92 -11 0 -19 -3 -19
-7z"/>
<path d="M6040 575 c0 -118 1 -125 20 -125 19 0 20 7 20 125 0 118 -1 125 -20
125 -19 0 -20 -7 -20 -125z"/>
<path d="M8640 587 c0 -98 3 -116 18 -130 25 -23 58 -21 82 3 16 16 20 17 20
5 0 -8 9 -15 20 -15 19 0 20 7 20 125 0 118 -1 125 -20 125 -19 0 -20 -7 -20
-93 0 -103 -15 -141 -53 -135 -21 3 -22 9 -25 116 -2 104 -4 112 -22 112 -19
0 -20 -7 -20 -113z"/>
<path d="M9220 575 c0 -104 2 -125 15 -125 13 0 15 21 15 125 0 104 -2 125
-15 125 -13 0 -15 -21 -15 -125z"/>
<path d="M9453 687 c2 -7 16 -57 31 -112 15 -55 31 -108 36 -117 16 -29 11
-46 -20 -70 -16 -12 -30 -28 -30 -35 0 -16 5 -16 39 2 36 18 51 52 90 195 18
63 34 123 37 133 4 12 0 17 -14 17 -17 0 -24 -16 -46 -106 -14 -59 -27 -109
-30 -111 -2 -2 -11 29 -21 69 -31 139 -34 148 -56 148 -13 0 -19 -5 -16 -13z"/>
</g>
</svg>
